{
	"asset":{
		"version":"2.0",
		"generator":"Created using the official Cinema 4D glTF Exporter 1.000x284978"
	},
	"scenes":[{
		"nodes":[0]
	}],
	"nodes":[{
		"name":"逆变器.STEP",
		"translation":[0.0,
		0.0,
		0.0],
		"rotation":[0.7041981816291809,
		-0.00248709530569613,
		0.0022401500027626755,
		-0.7099955677986145],
		"scale":[1.0,
		1.0,
		1.0],
		"children":[1,
		2]
	},
	{
		"name":"Ô²½Ç20",
		"translation":[0.0,
		0.0,
		0.0],
		"rotation":[0.0,
		0.0,
		0.0,
		-1.0],
		"scale":[1.0,
		1.0,
		1.0],
		"mesh":0
	},
	{
		"name":"Í¹Ì¨-À­Éì5",
		"translation":[0.0,
		0.0,
		0.0],
		"rotation":[0.0,
		0.0,
		0.0,
		-1.0],
		"scale":[1.0,
		1.0,
		1.0],
		"mesh":1
	}],
	"meshes":[{
		"name":"Ô²½Ç20",
		"primitives":[{
			"attributes":{
				"POSITION":1,
				"NORMAL":2,
				"TEXCOORD_0":3
			},
			"indices":0
		}]
	},
	{
		"name":"Í¹Ì¨-À­Éì5",
		"primitives":[{
			"attributes":{
				"POSITION":5,
				"NORMAL":6,
				"TEXCOORD_0":7
			},
			"indices":4,
			"material":0
		}]
	}],
	"accessors":[{
		"bufferView":0,
		"type":"SCALAR",
		"componentType":5123,
		"count":3468,
		"min":[0],
		"byteOffset":0,
		"max":[1366]
	},
	{
		"bufferView":1,
		"type":"VEC3",
		"componentType":5126,
		"count":1367,
		"min":[-484.5,
		-350.0,
		-5.684341886080802e-14],
		"byteOffset":0,
		"max":[549.5,
		350.0,
		300.0]
	},
	{
		"bufferView":1,
		"type":"VEC3",
		"componentType":5126,
		"count":1367,
		"min":[-0.9991132020950317,
		-0.999713122844696,
		-0.9999757409095764],
		"byteOffset":12,
		"max":[0.9955611824989319,
		1.0,
		0.9999820590019226]
	},
	{
		"bufferView":1,
		"type":"VEC2",
		"componentType":5126,
		"count":1367,
		"min":[-9.518833721244846e-9,
		-3.3715785718868577e-8],
		"byteOffset":24,
		"max":[1.0,
		1.0]
	},
	{
		"bufferView":2,
		"type":"SCALAR",
		"componentType":5123,
		"count":216,
		"min":[0],
		"byteOffset":0,
		"max":[125]
	},
	{
		"bufferView":3,
		"type":"VEC3",
		"componentType":5126,
		"count":126,
		"min":[-454.5,
		-320.0,
		300.0],
		"byteOffset":0,
		"max":[454.5,
		320.0,
		300.010009765625]
	},
	{
		"bufferView":3,
		"type":"VEC3",
		"componentType":5126,
		"count":126,
		"min":[-0.998109757900238,
		-0.9987324476242065,
		-1.0],
		"byteOffset":12,
		"max":[0.998109757900238,
		0.9987324476242065,
		1.0]
	},
	{
		"bufferView":3,
		"type":"VEC2",
		"componentType":5126,
		"count":126,
		"min":[0.0,
		-1.6962957087422477e-15],
		"byteOffset":24,
		"max":[1.0,
		1.0]
	}],
	"bufferViews":[{
		"buffer":0,
		"byteOffset":0,
		"byteLength":6936,
		"target":34963
	},
	{
		"buffer":0,
		"byteOffset":6936,
		"byteLength":43744,
		"target":34962,
		"byteStride":32
	},
	{
		"buffer":1,
		"byteOffset":0,
		"byteLength":432,
		"target":34963
	},
	{
		"buffer":1,
		"byteOffset":432,
		"byteLength":4032,
		"target":34962,
		"byteStride":32
	}],
	"buffers":[{
		"uri":"data:application/octet-stream;base64,",
		"byteLength":50680
	},
	{
		"uri":"data:application/octet-stream;base64,",
		"byteLength":4464
	}],
	"materials":[{
		"pbrMetallicRoughness":{
			"baseColorFactor":[0.8,
			0.8,
			0.8,
			1.0],
			"metallicFactor":0.0,
			"roughnessFactor":0.5
		},
		"emissiveFactor":[0.0,
		0.0,
		0.0],
		"alphaMode":"BLEND",
		"doubleSided":true,
		"name":"材质"
	}]
}