<?xml version="1.0" standalone="no"?><!DOCTYPE svg PUBLIC "-//W3C//DTD SVG 1.1//EN" "http://www.w3.org/Graphics/SVG/1.1/DTD/svg11.dtd"><svg t="1602062680332" class="icon" viewBox="0 0 1210 1024" version="1.1" xmlns="http://www.w3.org/2000/svg" p-id="3278" xmlns:xlink="http://www.w3.org/1999/xlink" width="236.328125" height="200"><defs><style type="text/css"></style></defs><path d="M583.168 56.599273a93.090909 93.090909 0 0 1 161.698909 62.929454v784.942546a93.090909 93.090909 0 0 1-161.652364 63.022545l-131.909818-143.453091a261.399273 261.399273 0 0 0-233.844363-81.175272l-109.474909 17.594181a93.090909 93.090909 0 0 1-107.845819-91.927272V354.955636a93.090909 93.090909 0 0 1 107.333819-92.020363l110.871272 17.221818a264.610909 264.610909 0 0 0 235.613091-82.664727z m308.503273 14.149818a46.545455 46.545455 0 0 1 63.208727-18.478546C1110.248727 137.262545 1210.181818 314.647273 1210.181818 511.534545c0 197.678545-100.770909 375.668364-257.117091 460.288a46.545455 46.545455 0 0 1-44.311272-81.92C1034.333091 822.039273 1117.090909 675.84 1117.090909 511.534545c0-163.607273-82.106182-309.341091-206.894545-377.623272a46.545455 46.545455 0 0 1-18.525091-63.162182z m-239.895273 48.779636l-129.210182 140.893091a357.562182 357.562182 0 0 1-152.296727 98.210909A45.149091 45.149091 0 0 1 372.363636 372.363636v279.272728a46.545455 46.545455 0 0 1-1.861818 12.939636 353.652364 353.652364 0 0 1 149.317818 96.442182l131.956364 143.453091V119.528727z m196.561455 130.327273a46.545455 46.545455 0 0 1 65.489454-6.609455C982.434909 299.287273 1024 401.128727 1024 512c0 110.871273-41.518545 212.619636-109.986909 268.706909a46.545455 46.545455 0 0 1-58.973091-72.052364c45.288727-37.050182 75.869091-112.081455 75.869091-196.654545 0-84.619636-30.626909-159.650909-76.008727-196.747636a46.545455 46.545455 0 0 1-6.562909-65.489455zM93.230545 354.909091v313.576727l109.521455-17.594182c25.553455-4.096 51.2-5.352727 76.520727-3.863272V375.808a357.608727 357.608727 0 0 1-75.217454-3.677091l-110.824728-17.221818z" fill="#1296db" p-id="3279"></path></svg>