<?xml version="1.0" standalone="no"?><!DOCTYPE svg PUBLIC "-//W3C//DTD SVG 1.1//EN" "http://www.w3.org/Graphics/SVG/1.1/DTD/svg11.dtd"><svg t="1594695487045" class="icon" viewBox="0 0 1024 1024" version="1.1" xmlns="http://www.w3.org/2000/svg" p-id="4997" xmlns:xlink="http://www.w3.org/1999/xlink" width="500" height="500"><defs><style type="text/css"></style></defs><path d="M803.78368 898.22208a30.03904 30.03904 0 0 1 30.03392 30.03392v4.26496A30.03904 30.03904 0 0 1 803.7888 962.56H220.2112a30.03904 30.03904 0 0 1-30.03392-30.03904v-4.26496a30.03904 30.03904 0 0 1 30.03392-30.03392H803.7888zM902.48704 61.44C935.66464 61.44 962.56 88.33536 962.56 121.51296v652.2368c0 33.1776-26.89536 60.06784-60.07296 60.06784H121.51296c-33.1776 0-60.07296-26.89536-60.07296-60.07296V121.51296C61.44 88.33536 88.33536 61.44 121.51296 61.44h780.97408z m0 60.07296H121.51296v652.2368h780.97408V121.50784z m-157.99808 180.64384a30.03904 30.03904 0 1 1 49.86368 33.52576l-129.6384 193.0752a30.03904 30.03904 0 0 1-45.3632 5.28896L507.91424 431.2064l-139.6736 104.82688a30.03904 30.03904 0 0 1-39.05024-2.58048L233.55392 439.9104a30.03904 30.03904 0 1 1 41.99424-42.9568l77.25568 75.57632L491.81184 368.128a30.03904 30.03904 0 0 1 38.4512 1.92L634.368 466.16064l110.17728-164.00384h-0.06144z" p-id="4998" fill="#1afa29"></path></svg>