<?xml version="1.0" standalone="no"?><!DOCTYPE svg PUBLIC "-//W3C//DTD SVG 1.1//EN" "http://www.w3.org/Graphics/SVG/1.1/DTD/svg11.dtd"><svg t="1601176735644" class="icon" viewBox="0 0 1024 1024" version="1.1" xmlns="http://www.w3.org/2000/svg" p-id="4574" xmlns:xlink="http://www.w3.org/1999/xlink" width="200" height="200"><defs><style type="text/css"></style></defs><path d="M728.678436 434.244079l-165.651784-40.916898 36.021401-111.370507 0.968048-6.037507c0.373507-9.365298-2.956332-18.159592-9.365298-24.817222-6.111185-6.334265-15.053857-9.986445-24.495904-9.986445-10.729365 0-20.819165 4.669346-26.554796 12.148691L325.775156 452.130448l-3.725858 4.594645c-6.434549 10.411117-6.809079 23.551392-0.944512 34.332946 5.51562 10.06217 15.750729 16.645099 26.904767 17.514909l165.280324 27.40107-71.125921 202.843848-0.86981 3.278673c-1.837858 10.037611 0.721431 20.271696 7.105838 27.92398 6.509251 7.77508 16.396435 12.421914 26.556842 12.421914l0.024559 0c11.278881 0 21.440311-5.365194 27.625174-14.432711l248.5314-279.359522 2.731204-3.777023c5.91164-10.483772 5.962805-23.029506 0.072655-33.586956C748.529553 441.695794 739.162208 435.435207 728.678436 434.244079zM510.506485 687.591157l53.562916-152.832827 0.89437-3.329838c1.837858-9.862625-0.796132-19.998473-7.15598-27.822672-5.909593-7.205099-14.308891-11.601222-23.400966-12.322653l-153.62896-25.439392 155.715481-144.735405-24.146956 74.67884-1.017166 5.962805c-0.348947 9.141194 2.855024 17.860786 9.115612 24.49488 5.465478 5.912663 12.867052 9.688663 20.421098 10.558473l158.051689 39.078017L510.506485 687.591157z" p-id="4575" fill="#1296db"></path><path d="M528.097118 61.10059c-239.859903 0-435.001325 195.142445-435.001325 435.001325s195.140399 435.001325 435.001325 435.001325c239.85888 0 435.001325-195.142445 435.001325-435.001325S767.954975 61.10059 528.097118 61.10059zM528.097118 875.15602c-209.005174 0-379.054105-170.049954-379.054105-379.054105 0-209.004151 170.048931-379.054105 379.054105-379.054105 209.003128 0 379.054105 170.050977 379.054105 379.054105C907.151223 705.106066 737.100246 875.15602 528.097118 875.15602z" p-id="4576" fill="#1296db"></path></svg>