<?xml version="1.0" standalone="no"?><!DOCTYPE svg PUBLIC "-//W3C//DTD SVG 1.1//EN" "http://www.w3.org/Graphics/SVG/1.1/DTD/svg11.dtd"><svg t="1601176763353" class="icon" viewBox="0 0 1024 1024" version="1.1" xmlns="http://www.w3.org/2000/svg" p-id="5366" xmlns:xlink="http://www.w3.org/1999/xlink" width="200" height="200"><defs><style type="text/css"></style></defs><path d="M512 32C247.68 32 32 247.04 32 512s215.68 480 480 480 480-215.04 480-480S776.96 32 512 32z m0 832c-193.92 0-352-158.08-352-352S318.08 160 512 160s352 158.08 352 352-158.08 352-352 352z" fill="#1296db" p-id="5367"></path><path d="M508.8 707.2m-64 0a64 64 0 1 0 128 0 64 64 0 1 0-128 0Z" fill="#1296db" p-id="5368"></path><path d="M506.88 599.68c35.2 0 64-28.8 64-64V286.72c0-35.2-28.8-64-64-64s-64 28.8-64 64v248.96c0 35.2 28.8 64 64 64z" fill="#1296db" p-id="5369"></path></svg>