<?xml version="1.0" standalone="no"?><!DOCTYPE svg PUBLIC "-//W3C//DTD SVG 1.1//EN" "http://www.w3.org/Graphics/SVG/1.1/DTD/svg11.dtd"><svg t="1594695587669" class="icon" viewBox="0 0 1024 1024" version="1.1" xmlns="http://www.w3.org/2000/svg" p-id="5779" xmlns:xlink="http://www.w3.org/1999/xlink" width="500" height="500"><defs><style type="text/css"></style></defs><path d="M722.80746667 259.14026667c-11.4688 11.4688-11.4688 30.58346667 0 42.5984 11.4688 11.4688 30.03733333 11.4688 41.50613333 0 11.4688-11.4688 11.4688-30.58346667 0-42.5984-11.4688-13.65333333-30.03733333-13.65333333-41.50613333 0zM159.19786667 449.7408c0 17.47626667 13.1072 30.58346667 30.03733333 30.58346667s30.03733333-13.65333333 30.03733333-30.58346667c0-17.47626667-13.1072-30.58346667-30.03733333-30.58346667-16.384 0-30.03733333 13.1072-30.03733333 30.58346667z" p-id="5780" fill="#CE0D83"></path><path d="M514.73066667 30.3104c-261.05173333 0-472.95146667 215.17653333-472.40533334 481.14346667 0 223.36853333 155.648 459.29813333 426.53013334 471.8592V927.06133333c-249.0368-19.6608-367.54773333-194.9696-368.09386667-415.60746666-0.54613333-233.19893333 185.1392-421.61493333 413.96906667-421.61493334s403.0464 170.3936 402.50026666 383.93173334h58.43626667c1.09226667-245.76-199.8848-443.46026667-460.93653333-443.46026667z" p-id="5781" fill="#CE0D83"></path><path d="M215.99573333 697.68533333c11.4688 11.4688 30.03733333 11.4688 41.50613334 0 11.4688-11.4688 11.4688-30.58346667 0-42.5984-11.4688-11.4688-30.03733333-11.4688-41.50613334 0-11.4688 11.4688-11.4688 30.58346667 0 42.5984zM577.536 509.81546667c-6.00746667-16.384-18.0224-30.03733333-33.86026667-34.95253334V204.52693333c0-10.92266667-8.73813333-19.6608-19.6608-19.6608s-19.6608 8.73813333-19.6608 19.6608V473.77066667c-3.82293333 1.09226667-7.09973333 2.73066667-9.8304 4.9152-3.82293333 2.73066667-120.14933333-105.40373333-151.82506666-136.53333334-7.09973333-7.64586667-22.9376-8.73813333-29.4912-1.09226666-6.00746667 7.64586667-8.73813333 21.2992-4.9152 30.03733333 3.82293333 6.00746667 160.5632 143.63306667 160.5632 143.63306667s-2.18453333 6.00746667-2.18453334 13.65333333c0 32.22186667 25.66826667 58.43626667 57.344 58.43626667 24.576 0 46.42133333-16.384 53.52106667-38.22933334 0 0 4.9152-9.8304 4.9152-18.56853333 0-10.37653333-4.9152-20.20693333-4.9152-20.20693333z m-186.23146667 279.62026666c-16.93013333 0-30.03733333 13.65333333-30.03733333 30.58346667 0 17.47626667 13.1072 30.58346667 30.03733333 30.58346667s30.03733333-13.65333333 30.03733334-30.58346667c0-16.93013333-13.1072-30.58346667-30.03733334-30.58346667zM801.9968 994.23573333l8.73813333-20.75306666-29.4912-49.69813334 22.9376-21.84533333c6.5536-6.00746667 6.5536-15.83786667 0-21.84533333H735.91466667c-6.00746667 6.00746667-6.00746667 15.83786667 0 21.84533333l22.9376 21.84533333h0.54613333l-28.94506667 49.69813334 13.65333334 20.75306666c-98.304-5.46133333-174.21653333-37.6832-174.21653334-77.0048 0-56.79786667 53.52106667-72.0896 129.4336-76.45866666 10.92266667-16.384 20.75306667-38.22933333 15.29173334-58.43626667-20.75306667-17.47626667-36.59093333-43.69066667-44.78293334-74.27413333-1.6384 0.54613333-2.73066667 1.09226667-4.36906666 1.09226666-8.73813333 0-15.83786667-7.09973333-15.83786667-15.83786666v-31.1296c0-8.192 7.09973333-15.29173333 15.29173333-15.29173334 6.5536-70.99733333 52.97493333-125.61066667 110.31893334-125.61066666s104.31146667 55.7056 110.31893333 126.70293333c1.6384-0.54613333 3.2768-1.09226667 5.46133333-1.09226667 8.73813333 0 16.384 7.09973333 16.384 15.83786667v31.1296c0 8.73813333-7.09973333 15.83786667-16.384 15.83786667-3.2768 0-6.5536-1.09226667-9.28426666-3.2768-9.28426667 37.13706667-30.58346667 67.72053333-57.89013334 84.65066666-1.6384 17.47626667 7.64586667 36.0448 16.93013334 49.69813334 78.6432 3.2768 135.44106667 16.93013333 135.44106666 77.0048 0 38.77546667-75.91253333 70.99733333-174.21653333 76.45866666z" p-id="5782" fill="#CE0D83"></path></svg>
