<?xml version="1.0" standalone="no"?><!DOCTYPE svg PUBLIC "-//W3C//DTD SVG 1.1//EN" "http://www.w3.org/Graphics/SVG/1.1/DTD/svg11.dtd"><svg t="1594696183840" class="icon" viewBox="0 0 1024 1024" version="1.1" xmlns="http://www.w3.org/2000/svg" p-id="14539" xmlns:xlink="http://www.w3.org/1999/xlink" width="500" height="500"><defs><style type="text/css"></style></defs><path d="M371.2 719.36c-118.784 4.608-175.616 178.688-216.576 264.192h266.24l-25.088-263.168c-8.704-1.024-16.384-1.024-24.576-1.024z m289.28-6.144c-10.752 0.512-21.504 3.072-32.768 7.68l-24.576 262.656h266.24C829.952 901.12 762.88 709.632 660.48 713.216z m-70.144 37.376l-58.368 7.68a178.098 178.098 0 0 1-40.448 0l-57.344-7.68c-7.168 0-13.824 3.072-13.312 7.168l21.504 225.792h139.264l21.504-225.792c0.512-4.096-5.632-7.168-12.8-7.168z m214.528-475.136C769.024 148.992 668.16 35.84 500.736 32.256h-15.872c-140.8 0-262.144 105.472-274.944 241.152-51.2 17.408-79.872 65.024-78.336 120.32 4.096 124.416 37.888 121.344 110.592 122.88V280.576c1.536-102.912 109.568-217.6 258.56-217.6 147.968 0 258.048 142.848 266.24 218.624v232.448c-3.584 7.68-9.728 15.36-18.944 25.088 9.216-46.08 16.896-110.08 17.408-132.096 0-3.584-0.512-27.136-2.048-33.28-11.264-88.576-66.048-185.856-192.512-211.456 1.536-5.12 2.56-10.752 2.56-16.384 0-34.304-30.72-61.952-69.12-61.952s-68.608 28.672-68.608 62.976c0 5.632 1.024 11.264 2.56 16.384C296.96 192 244.224 312.832 243.2 408.576c2.56 34.816 11.776 103.424 17.92 137.216 28.672 180.224 40.448 131.584 40.448 110.08 0-9.728-4.096-37.888-5.632-71.68 10.752 19.968 24.576 37.888 40.96 54.272C371.712 673.28 415.744 695.808 463.36 704v1.024c0.512 10.24 14.848 17.92 29.696 16.384l47.616-4.608c12.8-1.024 24.064-9.216 26.624-17.92 36.352-9.728 69.632-28.672 97.792-54.784 11.264-6.144 22.528-13.312 33.792-21.504-0.512 21.504-1.024 39.424-1.024 46.592 0 19.968 17.92-2.048 37.888-77.824 43.008-41.984 60.928-74.752 61.44-74.752 57.856-13.824 80.896-13.312 80.896-123.904-0.512-52.224-24.576-98.304-73.216-117.248zM567.296 688.128l-1.536-25.6c-0.512-10.24-14.848-17.92-29.696-16.896l-48.128 4.096c-14.848 1.536-27.136 11.776-26.624 22.016l1.536 21.504C387.584 678.912 325.12 627.2 295.936 558.08c1.024-48.128 10.752-101.376 46.08-132.096 37.888-32.768 56.32-86.528 65.536-128 8.192 36.352 27.136 80.384 70.144 90.112 72.704 16.896 104.96 17.92 138.24 18.432 15.872 0.512 82.432-2.56 89.6 64.512 0 0-2.56 57.344-4.608 111.104l-1.536 3.072c-46.08 38.4-107.52 58.368-107.52 58.368-7.68 1.536-13.312 11.264-11.264 19.456s11.776 13.312 18.944 10.24c0 0 5.12-1.536 13.824-4.608-14.848 8.192-30.208 14.848-46.08 19.456z" p-id="14540" fill="#1296db"></path><path d="M389.632 459.776c-14.336 0-26.112 11.776-26.112 26.112S375.296 512 389.632 512s26.112-11.776 26.112-26.112-11.776-26.112-26.112-26.112zM579.584 485.888a26.112 26.112 0 1 0 52.224 0 26.112 26.112 0 1 0-52.224 0z" p-id="14541" fill="#1296db"></path></svg>